# AST/ASF file generated using VICON BodyLanguage
# -----------------------------------------------
:version 1.10
:name VICON
:units
  mass 1.0
  length 0.45
  angle deg
:documentation
   .ast/.asf automatically generated from VICON data using
   VICON BodyBuilder and BodyLanguage model FoxedUp or BRILLIANT.MOD
:root
   order TX TY TZ RX RY RZ
   axis XYZ
   position 0 0 0  
   orientation 0 0 0 
:bonedata
  begin
     id 1 
     name lhipjoint
     direction 0.716712 -0.619771 0.3197 
     length 2.67249 
     axis 0 0 0  XYZ
  end
  begin
     id 2 
     name lfemur
     direction 0.34202 -0.939693 0  
     length 7.04375  
     axis 0 0 20  XYZ
    dof rx ry rz
    limits (-160.0 20.0)
           (-70.0 70.0)
           (-60.0 70.0)
  end
  begin
     id 3 
     name ltibia
     direction 0.34202 -0.939693 0   
     length 8.12233   
     axis 0 0 20   XYZ
    dof rx
    limits (-10.0 170.0)
  end
  begin
     id 4 
     name lfoot
     direction 0.0986665 -0.271084 0.957485   
     length 1.97802   
     axis -90 7.62852e-016 20   XYZ
    dof rx rz
    limits (-45.0 90.0)
           (-70.0 20.0)
  end
  begin
     id 5 
     name ltoes
     direction 1.53569e-011 -4.21962e-011 1   
     length 0.991074   
     axis -90 7.62852e-016 20   XYZ
    dof rx
    limits (-90.0 20.0)
  end
  begin
     id 6 
     name rhipjoint
     direction -0.684484 -0.647907 0.334213   
     length 2.55643  
     axis 0 0 0  XYZ 
  end
  begin
     id 7 
     name rfemur
     direction -0.34202 -0.939693 0   
     length 7.00452   
     axis 0 0 -20   XYZ
    dof rx ry rz
    limits (-160.0 20.0)
           (-70.0 70.0)
           (-70.0 60.0)
  end
  begin
     id 8 
     name rtibia
     direction -0.34202 -0.939693 0   
     length 7.98545   
     axis 0 0 -20   XYZ
    dof rx
    limits (-10.0 170.0)
 end
 begin
     id 9 
     name rfoot
     direction -0.0877828 -0.241181 0.966502   
     length 2.17223  
     axis -90 -7.62852e-016 -20   XYZ
    dof rx rz
    limits (-45.0 90.0)
           (-20.0 70.0)
  end
  begin
     id 10 
     name rtoes
     direction -1.53586e-011 -4.22014e-011 1   
     length 1.0886   
     axis -90 -7.62852e-016 -20   XYZ
    dof rx
    limits (-90.0 20.0)
  end
  begin
     id 11 
     name lowerback
     direction -0.0470064 0.989573 -0.136149   
     length 2.05976   
     axis 0 0 0   XYZ
    dof rx ry rz
    limits (-20.0 45.0)
           (-30.0 30.0)
           (-30.0 30.0)
  end
  begin
     id 12 
     name upperback
     direction -0.00532895 0.998093 0.0615045   
     length 2.02286   
     axis 0 0 0   XYZ
    dof rx ry rz
    limits (-20.0 45.0)
           (-30.0 30.0)
           (-30.0 30.0)
  end
  begin
     id 13 
     name thorax
     direction 0.0171558 0.991502 0.128954   
     length 2.09196   
     axis 0 0 0   XYZ
    dof rx ry rz
    limits (-20.0 45.0)
           (-30.0 30.0)
           (-30.0 30.0)
  end
  begin
     id 14 
     name lowerneck
     direction 0.0221176 0.995362 0.0936194   
     length 1.70234   
     axis 0 0 0   XYZ
    dof rx ry rz
    limits (-20.0 45.0)
           (-30.0 30.0)
           (-30.0 30.0)
  end
  begin
     id 15 
     name upperneck
     direction -0.0237973 0.998511 -0.0490877   
     length 1.66068   
     axis 0 0 0   XYZ
    dof rx ry rz
    limits (-20.0 45.0)
           (-30.0 30.0)
           (-30.0 30.0)
  end
  begin
     id 16
     name head
     direction -0.00980141 0.999531 -0.0289958  
     length 1.82618  
     axis 0 0 0   XYZ
    dof rx ry rz
    limits (-20.0 45.0)
           (-30.0 30.0)
           (-30.0 30.0)
  end
  begin
     id 17 
     name lclavicle
     direction 0.894784 0.445864 -0.0238113  
     length 3.37997  
     axis 0 0 0   XYZ
    dof ry rz
    limits (-20.0 10.0)
           (0.0 20.0)
  end
  begin
     id 18 
     name lhumerus
     direction 1 -4.48975e-011 6.49229e-028   
     length 5.79016   
     axis 180 -30 -90   XYZ
    dof rx ry rz
    limits (-60.0 90.0)
           (-90.0 90.0)
           (-90.0 90.0)
  end
  begin
     id 19
     name lradius
     direction 1 -4.48959e-011 2.80427e-027   
     length 3.48314   
     axis 180 -30 -90   XYZ
    dof rx
    limits (-10.0 170.0)
  end
  begin
     id 20
     name lwrist
     direction 1 -4.48938e-011 5.60449e-029   
     length 1.74157   
     axis 8.48505e-016 90 90   XYZ
    dof ry
    limits (-180.0 0.0)
 end
  begin
     id 21 
     name lhand
     direction 1 -4.49048e-011 1.1209e-028   
     length 0.587065   
     axis -7.15228e-017 90 90   XYZ
    dof rx rz
    limits (-90.0 90.0)
           (-45.0 45.0)
  end
  begin
     id 22 
     name lfingers
     direction 1 -4.49036e-011 2.24179e-028   
     length 0.473307   
     axis -1.43046e-016 90 90   XYZ
    dof rx
    limits (0.0 90.0)
  end
  begin
     id 23
     name lthumb
     direction 0.707107 -6.34878e-011 0.707107   
     length 0.679577   
     axis -90 45 2.85299e-015   XYZ
    dof rx rz
    limits (-45.0 45.0)
           (-45.0 45.0)
  end
  begin
     id 24 
     name rclavicle
     direction -0.952963 0.303049 0.00480459   
     length 3.50503  
     axis 0 0 0   XYZ 
    dof ry rz
    limits (-10.0 20.0)
           (-20.0 0.0)
  end
  begin
     id 25 
     name rhumerus
     direction -1 -4.48973e-011 -1.5431e-027  
     length 5.69822   
     axis 180 30 90   XYZ
    dof rx ry rz
    limits (-90.0 60.0)
           (-90.0 90.0)
           (-90.0 90.0)
  end
  begin
     id 26 
     name rradius
     direction -1 -4.4896e-011 2.11972e-027   
     length 3.58077   
     axis 180 30 90   XYZ
    dof rx
    limits (-10.0 170.0)
  end
  begin
     id 27 
     name rwrist
     direction -1 -4.48943e-011 5.60449e-029   
     length 1.79039   
     axis 8.48505e-016 -90 -90   XYZ
    dof ry
    limits (-180.0 0.0)
  end
  begin
     id 28
     name rhand
     direction -1 -4.49007e-011 1.1209e-028   
     length 0.620156   
     axis -7.15228e-017 -90 -90   XYZ
    dof rx rz
    limits (-90.0 90.0)
           (-45.0 45.0)
  end
  begin
     id 29
     name rfingers
     direction -1 -4.49025e-011 2.24179e-028   
     length 0.499985   
     axis -1.43046e-016 -90 -90   XYZ
    dof rx
    limits (0.0 90.0)
  end
  begin
     id 30
     name rthumb
     direction -0.707107 -6.3481e-011 0.707107   
     length 0.717882   
     axis -90 -45 -2.85299e-015   XYZ
    dof rx rz
    limits (-45.0 45.0)
           (-45.0 45.0)
  end
:hierarchy
  begin
    root lhipjoint rhipjoint lowerback
    lhipjoint lfemur
    lfemur ltibia
    ltibia lfoot
    lfoot ltoes
    rhipjoint rfemur
    rfemur rtibia
    rtibia rfoot
    rfoot rtoes
    lowerback upperback
    upperback thorax
    thorax lowerneck lclavicle rclavicle
    lowerneck upperneck
    upperneck head
    lclavicle lhumerus
    lhumerus lradius
    lradius lwrist
    lwrist lhand lthumb
    lhand lfingers
    rclavicle rhumerus
    rhumerus rradius
    rradius rwrist
    rwrist rhand rthumb
    rhand rfingers
  end

#!OML:ASF H:\Terrain\Patient Classification 1\PaulMetrics\March17Take4\PaulMetrics.ASF
:FULLY-SPECIFIED
:DEGREES
619
root 14.3843 17.0934 -12.9199 -168.147 -19.9904 -187.279
lowerback 0.909903 -0.965267 -10.2001
upperback -2.69263 -1.70366 -0.855866
thorax -3.07462 -0.658805 4.882
lowerneck -8.05275 6.90941 5.83365
upperneck 18.252 8.73127 -3.43572
head 7.33772 4.08969 -1.31572
rclavicle -8.64962e-014 2.85256e-014
rhumerus -51.1556 11.1766 -90.7963
rradius 39.714
rwrist -6.88729
rhand -13.7755 -30.992
rfingers 7.12502
rthumb 12.3456 -60.6075
lclavicle -8.64962e-014 2.85256e-014
lhumerus -38.6524 -23.0232 83.6916
lradius 65.9776
lwrist 26.5238
lhand -17.228 -22.6572
lfingers 7.12502
lthumb 9.0153 7.13016
rfemur -39.825 6.49138 11.356
rtibia 30.2379
rfoot -9.17319 -18.45
rtoes -8.16713
lfemur 12.2596 -4.80878 -31.2296
ltibia 7.58083
lfoot -11.3809 -3.12604
ltoes 8.71516
620
root 14.3633 17.0715 -13.0937 -168.168 -20.1774 -187.285
lowerback 0.875115 -1.04465 -10.1301
upperback -2.73915 -1.80811 -0.85749
thorax -3.08867 -0.710995 4.84362
lowerneck -8.07869 6.87535 5.88397
upperneck 18.2259 8.68963 -3.50177
head 7.33707 4.06806 -1.3484
rclavicle 2.57519e-014 4.06515e-014
rhumerus -51.145 11.2316 -90.9022
rradius 39.7105
rwrist -7.18949
rhand -14.0192 -31.0587
rfingers 7.12502
rthumb 12.1106 -60.6882
lclavicle 2.57519e-014 4.06515e-014
lhumerus -39.1257 -22.6997 84.0597
lradius 65.2806
lwrist 26.3805
lhand -17.4302 -21.9692
lfingers 7.12502
lthumb 8.82019 7.8265
rfemur -39.7588 6.72006 11.2426
rtibia 30.8276
rfoot -9.00694 -18.0497
rtoes -0.680606
lfemur 12.0413 -4.91997 -31.0811
ltibia 9.13363
lfoot -11.5005 -3.11465
ltoes 3.74989
621
root 14.3362 17.0561 -13.2662 -168.117 -20.3714 -187.254
lowerback 0.632545 -1.09388 -9.94118
upperback -2.75093 -1.84046 -0.854033
thorax -2.96182 -0.737824 4.73626
lowerneck -7.93394 6.88341 6.04889
upperneck 18.1032 8.73922 -3.8081
head 7.29564 4.08006 -1.47432
rclavicle -8.6285e-015 1.80397e-014
rhumerus -51.1193 11.2901 -90.9488
rradius 39.6713
rwrist -7.30153
rhand -14.4217 -31.0479
rfingers 7.12502
rthumb 11.7225 -60.6999
lclavicle -8.6285e-015 1.80397e-014
lhumerus -39.5882 -22.4092 84.449
lradius 64.5938
lwrist 26.0985
lhand -17.2655 -21.2895
lfingers 7.12502
lthumb 8.97918 8.4994
rfemur -39.5936 6.20498 11.598
rtibia 31.3431
rfoot -7.95148 -17.3364
rtoes 1.78382
lfemur 11.1633 -5.03738 -30.9038
ltibia 11.6475
lfoot -11.9279 -3.14613
ltoes 0.808708
622
root 14.3135 17.0607 -13.4314 -168.337 -20.6004 -186.65
lowerback 0.57663 -1.05153 -9.26354
upperback -2.74748 -1.74381 -0.69711
thorax -2.94762 -0.699259 4.51828
lowerneck -7.95927 6.86968 5.96395
upperneck 18.1223 8.72777 -3.77662
head 7.30011 4.07131 -1.45082
rclavicle 2.60284e-015 1.55052e-014
rhumerus -50.8954 10.9636 -90.7107
rradius 39.444
rwrist -6.9731
rhand -14.8613 -30.4751
rfingers 7.12502
rthumb 11.2985 -60.1507
lclavicle 2.60284e-015 1.55052e-014
lhumerus -39.8112 -22.3228 84.9396
lradius 63.4595
lwrist 25.7149
lhand -17.198 -21.2892
lfingers 7.12502
lthumb 9.04433 8.49693
rfemur -39.3944 5.71673 12.7093
rtibia 31.8458
rfoot -5.75413 -16.8367
rtoes -0.255742
lfemur 10.0977 -5.03791 -30.0728
ltibia 14.5684
lfoot -12.0039 -3.36429
ltoes -2.09012
623
root 14.3009 17.063 -13.5883 -168.725 -20.7833 -185.566
lowerback 0.79366 -1.00283 -8.31276
upperback -2.82335 -1.65401 -0.357458
thorax -3.16841 -0.653479 4.34518
lowerneck -7.91794 6.82194 6.02175
upperneck 17.961 8.71391 -4.06963
head 7.25514 4.04832 -1.55831
rclavicle -1.17407e-015 -2.88238e-015
rhumerus -50.77 10.7599 -90.4739
rradius 39.3561
rwrist -6.86463
rhand -14.8635 -29.7345
rfingers 7.12502
rthumb 11.2964 -59.4103
lclavicle -1.17407e-015 -2.88238e-015
lhumerus -39.967 -22.024 85.4362
lradius 61.9603
lwrist 25.3526
lhand -17.0922 -21.8975
lfingers 7.12502
lthumb 9.14641 7.88416
rfemur -39.2227 5.55907 14.2545
rtibia 32.3723
rfoot -4.03665 -16.325
rtoes 0.132473
lfemur 8.9559 -4.75907 -28.6869
ltibia 17.5161
lfoot -11.6545 -3.63414
ltoes -7.0786
624
root 14.2856 17.0546 -13.7473 -169.03 -20.8368 -184.98
lowerback 1.10617 -0.989944 -7.87702
upperback -2.91036 -1.64352 -0.136222
thorax -3.43898 -0.639194 4.34045
lowerneck -7.92418 6.84269 6.00928
upperneck 17.9921 8.77062 -4.21976
head 7.27551 4.05976 -1.59881
rclavicle 2.69105e-014 -1.23246e-014
rhumerus -50.8575 10.9692 -90.5173
rradius 39.4089
rwrist -7.26483
rhand -13.7674 -30.4377
rfingers 7.12502
rthumb 12.3534 -60.0527
lclavicle 2.69105e-014 -1.23246e-014
lhumerus -40.2853 -21.3634 85.8521
lradius 60.4234
lwrist 25.0568
lhand -16.609 -22.2863
lfingers 7.12502
lthumb 9.61264 7.47438
rfemur -38.9154 5.30504 15.26
rtibia 32.9282
rfoot -3.3584 -15.6443
rtoes 3.10532
lfemur 7.90175 -4.22969 -27.7924
ltibia 20.433
lfoot -11.1634 -3.98377
ltoes -12.6761
625
root 14.2667 17.0466 -13.9124 -169.21 -20.7992 -184.964
lowerback 1.30311 -0.942808 -7.86927
upperback -2.94061 -1.60089 -0.157173
thorax -3.58879 -0.61158 4.31813
lowerneck -7.82102 6.94622 5.79399
upperneck 17.9761 8.87796 -3.83667
head 7.23004 4.1313 -1.43444
rclavicle 1.6965e-014 -2.47487e-014
rhumerus -50.7994 11.0509 -90.6304
rradius 39.1891
rwrist -7.56838
rhand -13.4982 -31.0397
rfingers 7.12502
rthumb 12.6129 -60.6389
lclavicle 1.6965e-014 -2.47487e-014
lhumerus -40.5405 -20.9205 86.164
lradius 58.8398
lwrist 24.781
lhand -16.2445 -22.6591
lfingers 7.12502
lthumb 9.96424 7.08508
rfemur -38.5685 4.82396 15.6982
rtibia 33.5898
rfoot -3.48631 -14.6376
rtoes 7.18317
lfemur 7.06694 -3.64731 -27.4485
ltibia 23.2144
lfoot -10.3306 -4.41212
ltoes -14.0497
626
root 14.2509 17.0409 -14.0765 -169.323 -20.8517 -184.905
lowerback 1.26361 -0.89765 -7.70089
upperback -2.90594 -1.53425 -0.262717
thorax -3.54414 -0.587906 4.10983
lowerneck -7.78377 6.89154 5.99215
upperneck 17.8619 8.77873 -3.83954
head 7.19112 4.10153 -1.47842
rclavicle -2.36833e-014 4.17448e-015
rhumerus -50.5741 10.9135 -90.8371
rradius 38.8516
rwrist -8.05898
rhand -15.1354 -30.7275
rfingers 7.12502
rthumb 11.0342 -60.4175
lclavicle -2.36833e-014 4.17448e-015
lhumerus -40.5438 -20.7928 86.3454
lradius 57.2329
lwrist 24.4071
lhand -16.0893 -22.7557
lfingers 7.12502
lthumb 10.114 6.98124
rfemur -38.3515 4.27778 16.2013
rtibia 34.3553
rfoot -3.78653 -13.6701
rtoes 10.1476
lfemur 6.32681 -3.08066 -27.0037
ltibia 25.7701
lfoot -9.03995 -4.79644
ltoes -13.4146
627
root 14.2357 17.0339 -14.2378 -169.344 -20.9816 -184.859
lowerback 1.13292 -0.930938 -7.61702
upperback -2.91406 -1.5669 -0.28563
thorax -3.47636 -0.610012 4.03716
lowerneck -7.67482 6.77299 6.29546
upperneck 17.8666 8.62531 -4.14091
head 7.19318 4.02142 -1.64237
rclavicle -4.93669e-014 -2.18663e-015
rhumerus -50.483 11.0194 -91.0792
rradius 38.6955
rwrist -9.10112
rhand -16.8978 -30.7459
rfingers 7.12502
rthumb 9.334 -60.5193
lclavicle -4.93669e-014 -2.18663e-015
lhumerus -40.7145 -20.4784 86.6724
lradius 55.6496
lwrist 24.0098
lhand -16.2151 -22.1969
lfingers 7.12502
lthumb 9.99261 7.54588
rfemur -38.184 3.83132 16.6512
rtibia 35.0948
rfoot -3.97194 -13.0295
rtoes 11.177
lfemur 5.37885 -2.61925 -26.5725
ltibia 28.2955
lfoot -7.29681 -5.1131
ltoes -13.1701
